<svg id="Layer_1" data-name="Layer 1" xmlns="http://www.w3.org/2000/svg" viewBox="0 0 655.94 830.88"><defs><style>.cls-1{fill:#fff;}</style></defs><path class="cls-1" d="M558.37,615.71q0-19.79-24.94-54.19l-7.74-12,.86-11.17q49-12.9,147.92-12.91,11.16,12.9,11.18,47.73T664.58,735.25q-21.09,127.28-35.26,183.17t-29.67,88.16q-15.48,32.25-48.59,60.2t-70.52,27.94q-37.41,0-69.23-16.34t-48.16-31.81l-15.48-16.35,18.92-27.51q42.15,24.93,62.78,24.93,32.69,0,58.48-45.57T536,801Q558.36,665.58,558.37,615.71Zm31-184.48q-17.22-16.75-17.2-45.15t23.65-49.87q23.64-21.49,54.61-21.5t48.16,17.19q17.19,17.22,17.2,45.15T691.24,426.5Q666.73,448,636.63,448T589.33,431.23Z" transform="translate(-347.67 -263.84)"/><path class="cls-1" d="M964.91,524.42q-1.74,18.93-15.48,49.89a617.19,617.19,0,0,0-64.5-3.45h-3.44Q863.43,783.29,848,884.76t-40.42,141.91a342.48,342.48,0,0,1-64.07-8.17q-33.12-7.32-45.16-15Q719,939.79,740,811.67t27.09-236.5c-16.06,1.15-62.63,10-82.11,12.83-1.72-7.44-4-20.26-4-28s-8.3-20.08-6-35l94.69-.58q1.71-74.82,7.74-113.52,10.3-68.79,47.73-107.92t96.75-39.14q37.83,0,59.77,16.77t21.93,52.89q0,36.12-32.68,93.31a321.79,321.79,0,0,1-86,97.61Zm-25.8-117Q958,373.08,958,345.11T940,317.17q-37.85,0-48.16,86.85-3.43,29.25-5.15,66.23Q920.19,441.87,939.11,407.46Z" transform="translate(-347.67 -263.84)"/></svg>